<svg width="56" height="56" viewBox="0 0 56 56" fill="none" xmlns="http://www.w3.org/2000/svg">
<g filter="url(#filter0_d_59_779)">
<rect x="6" y="2" width="44" height="44" rx="8" fill="black"/>
</g>
<path d="M32.125 23.4062V22.7188C32.125 22.6328 32.082 22.5612 31.9961 22.5039C31.9388 22.418 31.8672 22.375 31.7812 22.375H24.2188C24.1328 22.375 24.0469 22.418 23.9609 22.5039C23.9036 22.5612 23.875 22.6328 23.875 22.7188V23.4062C23.875 23.4922 23.9036 23.5781 23.9609 23.6641C24.0469 23.7214 24.1328 23.75 24.2188 23.75H31.7812C31.8672 23.75 31.9388 23.7214 31.9961 23.6641C32.082 23.5781 32.125 23.4922 32.125 23.4062ZM24.2188 21H31.7812C31.8672 21 31.9388 20.9714 31.9961 20.9141C32.082 20.8281 32.125 20.7422 32.125 20.6562V19.9688C32.125 19.8828 32.082 19.8112 31.9961 19.7539C31.9388 19.668 31.8672 19.625 31.7812 19.625H24.2188C24.1328 19.625 24.0469 19.668 23.9609 19.7539C23.9036 19.8112 23.875 19.8828 23.875 19.9688V20.6562C23.875 20.7422 23.9036 20.8281 23.9609 20.9141C24.0469 20.9714 24.1328 21 24.2188 21ZM38.2695 19.8398C38.1549 19.7539 37.4818 19.2096 36.25 18.207V16.875C36.25 16.5026 36.1068 16.1875 35.8203 15.9297C35.5625 15.6432 35.2474 15.5 34.875 15.5H32.8984L31.9961 14.7695C31.2799 14.168 30.6927 13.724 30.2344 13.4375C29.4323 12.9792 28.6875 12.75 28 12.75C27.3125 12.75 26.5677 12.9792 25.7656 13.4375C25.3359 13.724 24.7487 14.168 24.0039 14.7695L23.1016 15.5H21.125C20.7526 15.5 20.4232 15.6432 20.1367 15.9297C19.8789 16.1875 19.75 16.5026 19.75 16.875V18.207L17.7734 19.7969C17.2578 20.2266 17 20.7565 17 21.3867V32.6875C17 33.2604 17.2005 33.7474 17.6016 34.1484C18.0026 34.5495 18.4896 34.75 19.0625 34.75H36.9375C37.5104 34.75 37.9974 34.5495 38.3984 34.1484C38.7995 33.7474 39 33.2604 39 32.6875V21.4297C39 20.7708 38.7565 20.2409 38.2695 19.8398ZM28 14.125C28.6875 14.125 29.5898 14.5833 30.707 15.5H25.293C26.4102 14.5833 27.3125 14.125 28 14.125ZM21.125 16.875H34.875V24.3086L30.75 27.6602C30.1771 28.1471 29.7188 28.4909 29.375 28.6914C28.8307 29.0638 28.3724 29.25 28 29.25C27.6276 29.25 27.1693 29.0638 26.625 28.6914C26.2812 28.4909 25.8229 28.1471 25.25 27.6602L21.125 24.3086V16.875ZM18.375 21.3867C18.375 21.1862 18.4609 21.0143 18.6328 20.8711L19.75 19.9688V23.2344L18.375 22.1172V21.3867ZM37.625 32.6875C37.625 32.888 37.5534 33.0456 37.4102 33.1602C37.2956 33.3034 37.138 33.375 36.9375 33.375H19.0625C18.862 33.375 18.6901 33.3034 18.5469 33.1602C18.4323 33.0456 18.375 32.888 18.375 32.6875V23.8789L24.4336 28.7344C25.0924 29.3073 25.6367 29.7227 26.0664 29.9805C26.7826 30.4102 27.4271 30.625 28 30.625C28.5729 30.625 29.2174 30.4102 29.9336 29.9805C30.3346 29.7227 30.8789 29.3073 31.5664 28.7344L37.625 23.8789V32.6875ZM37.625 22.1172C37.4818 22.2318 37.2669 22.4036 36.9805 22.6328L36.25 23.2344V19.9688L37.3672 20.8711C37.5391 21.0143 37.625 21.2005 37.625 21.4297V22.1172Z" fill="#6AB5B9"/>
<defs>
<filter id="filter0_d_59_779" x="0" y="0" width="56" height="56" filterUnits="userSpaceOnUse" color-interpolation-filters="sRGB">
<feFlood flood-opacity="0" result="BackgroundImageFix"/>
<feColorMatrix in="SourceAlpha" type="matrix" values="0 0 0 0 0 0 0 0 0 0 0 0 0 0 0 0 0 0 127 0" result="hardAlpha"/>
<feOffset dy="4"/>
<feGaussianBlur stdDeviation="3"/>
<feComposite in2="hardAlpha" operator="out"/>
<feColorMatrix type="matrix" values="0 0 0 0 0 0 0 0 0 0 0 0 0 0 0 0 0 0 0.08 0"/>
<feBlend mode="normal" in2="BackgroundImageFix" result="effect1_dropShadow_59_779"/>
<feBlend mode="normal" in="SourceGraphic" in2="effect1_dropShadow_59_779" result="shape"/>
</filter>
</defs>
</svg>
