<svg width="56" height="56" viewBox="0 0 56 56" fill="none" xmlns="http://www.w3.org/2000/svg">
<g filter="url(#filter0_d_59_797)">
<rect x="6" y="2" width="44" height="44" rx="8" fill="black"/>
</g>
<path d="M32.6875 12.75H23.0625C22.4896 12.75 22.0026 12.9505 21.6016 13.3516C21.2005 13.7526 21 14.2396 21 14.8125V32.6875C21 33.2604 21.2005 33.7474 21.6016 34.1484C22.0026 34.5495 22.4896 34.75 23.0625 34.75H32.6875C33.2604 34.75 33.7474 34.5495 34.1484 34.1484C34.5495 33.7474 34.75 33.2604 34.75 32.6875V14.8125C34.75 14.2396 34.5495 13.7526 34.1484 13.3516C33.7474 12.9505 33.2604 12.75 32.6875 12.75ZM27.875 33.375C27.5026 33.375 27.1732 33.2318 26.8867 32.9453C26.6289 32.6875 26.5 32.3724 26.5 32C26.5 31.6276 26.6289 31.3125 26.8867 31.0547C27.1732 30.7682 27.5026 30.625 27.875 30.625C28.2474 30.625 28.5625 30.7682 28.8203 31.0547C29.1068 31.3125 29.25 31.6276 29.25 32C29.25 32.3724 29.1068 32.6875 28.8203 32.9453C28.5625 33.2318 28.2474 33.375 27.875 33.375ZM32.6875 28.7344C32.6875 28.8776 32.6302 29.0065 32.5156 29.1211C32.4297 29.207 32.3151 29.25 32.1719 29.25H23.5781C23.4349 29.25 23.306 29.207 23.1914 29.1211C23.1055 29.0065 23.0625 28.8776 23.0625 28.7344V15.3281C23.0625 15.1849 23.1055 15.0703 23.1914 14.9844C23.306 14.8698 23.4349 14.8125 23.5781 14.8125H32.1719C32.3151 14.8125 32.4297 14.8698 32.5156 14.9844C32.6302 15.0703 32.6875 15.1849 32.6875 15.3281V28.7344Z" fill="#E93B81"/>
<defs>
<filter id="filter0_d_59_797" x="0" y="0" width="56" height="56" filterUnits="userSpaceOnUse" color-interpolation-filters="sRGB">
<feFlood flood-opacity="0" result="BackgroundImageFix"/>
<feColorMatrix in="SourceAlpha" type="matrix" values="0 0 0 0 0 0 0 0 0 0 0 0 0 0 0 0 0 0 127 0" result="hardAlpha"/>
<feOffset dy="4"/>
<feGaussianBlur stdDeviation="3"/>
<feComposite in2="hardAlpha" operator="out"/>
<feColorMatrix type="matrix" values="0 0 0 0 0 0 0 0 0 0 0 0 0 0 0 0 0 0 0.08 0"/>
<feBlend mode="normal" in2="BackgroundImageFix" result="effect1_dropShadow_59_797"/>
<feBlend mode="normal" in="SourceGraphic" in2="effect1_dropShadow_59_797" result="shape"/>
</filter>
</defs>
</svg>
