<svg width="27" height="27" viewBox="0 0 27 27" fill="none" xmlns="http://www.w3.org/2000/svg">
<path d="M23.625 18V9.00001C23.6246 8.60545 23.5204 8.21792 23.323 7.87632C23.1255 7.53472 22.8417 7.25105 22.5 7.05376L14.625 2.55376C14.283 2.35628 13.895 2.25232 13.5 2.25232C13.105 2.25232 12.717 2.35628 12.375 2.55376L4.5 7.05376C4.1583 7.25105 3.87448 7.53472 3.67702 7.87632C3.47956 8.21792 3.3754 8.60545 3.375 9.00001V18C3.3754 18.3946 3.47956 18.7821 3.67702 19.1237C3.87448 19.4653 4.1583 19.749 4.5 19.9463L12.375 24.4463C12.717 24.6437 13.105 24.7477 13.5 24.7477C13.895 24.7477 14.283 24.6437 14.625 24.4463L22.5 19.9463C22.8417 19.749 23.1255 19.4653 23.323 19.1237C23.5204 18.7821 23.6246 18.3946 23.625 18Z" stroke="#A6A6A6" stroke-width="2" stroke-linecap="round" stroke-linejoin="round"/>
<path d="M8.4375 4.73627L13.5 7.66127L18.5625 4.73627" stroke="#A6A6A6" stroke-width="2" stroke-linecap="round" stroke-linejoin="round"/>
<path d="M8.4375 22.2638V16.425L3.375 13.5" stroke="#A6A6A6" stroke-width="2" stroke-linecap="round" stroke-linejoin="round"/>
<path d="M23.625 13.5L18.5625 16.425V22.2638" stroke="#A6A6A6" stroke-width="2" stroke-linecap="round" stroke-linejoin="round"/>
<path d="M3.67871 7.83002L13.5 13.5113L23.3212 7.83002" stroke="#A6A6A6" stroke-width="2" stroke-linecap="round" stroke-linejoin="round"/>
<path d="M13.5 24.84V13.5" stroke="#A6A6A6" stroke-width="2" stroke-linecap="round" stroke-linejoin="round"/>
</svg>
