<svg width="56" height="56" viewBox="0 0 56 56" fill="none" xmlns="http://www.w3.org/2000/svg">
<g filter="url(#filter0_d_59_793)">
<rect x="6" y="2" width="44" height="44" rx="8" fill="black"/>
</g>
<path d="M35.1875 15.5H33.125V13.2656C33.125 13.1224 33.0677 13.0078 32.9531 12.9219C32.8672 12.8073 32.7526 12.75 32.6094 12.75H32.2656C32.1224 12.75 31.9935 12.8073 31.8789 12.9219C31.793 13.0078 31.75 13.1224 31.75 13.2656V15.5H23.5V13.2656C23.5 13.1224 23.4427 13.0078 23.3281 12.9219C23.2422 12.8073 23.1276 12.75 22.9844 12.75H22.6406C22.4974 12.75 22.3685 12.8073 22.2539 12.9219C22.168 13.0078 22.125 13.1224 22.125 13.2656V15.5H20.0625C19.4896 15.5 19.0026 15.7005 18.6016 16.1016C18.2005 16.5026 18 16.9896 18 17.5625V32.6875C18 33.2604 18.2005 33.7474 18.6016 34.1484C19.0026 34.5495 19.4896 34.75 20.0625 34.75H35.1875C35.7604 34.75 36.2474 34.5495 36.6484 34.1484C37.0495 33.7474 37.25 33.2604 37.25 32.6875V17.5625C37.25 16.9896 37.0495 16.5026 36.6484 16.1016C36.2474 15.7005 35.7604 15.5 35.1875 15.5ZM20.0625 16.875H35.1875C35.388 16.875 35.5456 16.9466 35.6602 17.0898C35.8034 17.2044 35.875 17.362 35.875 17.5625V19.625H19.375V17.5625C19.375 17.362 19.4323 17.2044 19.5469 17.0898C19.6901 16.9466 19.862 16.875 20.0625 16.875ZM35.1875 33.375H20.0625C19.862 33.375 19.6901 33.3034 19.5469 33.1602C19.4323 33.0456 19.375 32.888 19.375 32.6875V21H35.875V32.6875C35.875 32.888 35.8034 33.0456 35.6602 33.1602C35.5456 33.3034 35.388 33.375 35.1875 33.375ZM24.3594 26.5H22.6406C22.4974 26.5 22.3685 26.457 22.2539 26.3711C22.168 26.2565 22.125 26.1276 22.125 25.9844V24.2656C22.125 24.1224 22.168 24.0078 22.2539 23.9219C22.3685 23.8073 22.4974 23.75 22.6406 23.75H24.3594C24.5026 23.75 24.6172 23.8073 24.7031 23.9219C24.8177 24.0078 24.875 24.1224 24.875 24.2656V25.9844C24.875 26.1276 24.8177 26.2565 24.7031 26.3711C24.6172 26.457 24.5026 26.5 24.3594 26.5ZM28.4844 26.5H26.7656C26.6224 26.5 26.4935 26.457 26.3789 26.3711C26.293 26.2565 26.25 26.1276 26.25 25.9844V24.2656C26.25 24.1224 26.293 24.0078 26.3789 23.9219C26.4935 23.8073 26.6224 23.75 26.7656 23.75H28.4844C28.6276 23.75 28.7422 23.8073 28.8281 23.9219C28.9427 24.0078 29 24.1224 29 24.2656V25.9844C29 26.1276 28.9427 26.2565 28.8281 26.3711C28.7422 26.457 28.6276 26.5 28.4844 26.5ZM32.6094 26.5H30.8906C30.7474 26.5 30.6185 26.457 30.5039 26.3711C30.418 26.2565 30.375 26.1276 30.375 25.9844V24.2656C30.375 24.1224 30.418 24.0078 30.5039 23.9219C30.6185 23.8073 30.7474 23.75 30.8906 23.75H32.6094C32.7526 23.75 32.8672 23.8073 32.9531 23.9219C33.0677 24.0078 33.125 24.1224 33.125 24.2656V25.9844C33.125 26.1276 33.0677 26.2565 32.9531 26.3711C32.8672 26.457 32.7526 26.5 32.6094 26.5ZM28.4844 30.625H26.7656C26.6224 30.625 26.4935 30.582 26.3789 30.4961C26.293 30.3815 26.25 30.2526 26.25 30.1094V28.3906C26.25 28.2474 26.293 28.1328 26.3789 28.0469C26.4935 27.9323 26.6224 27.875 26.7656 27.875H28.4844C28.6276 27.875 28.7422 27.9323 28.8281 28.0469C28.9427 28.1328 29 28.2474 29 28.3906V30.1094C29 30.2526 28.9427 30.3815 28.8281 30.4961C28.7422 30.582 28.6276 30.625 28.4844 30.625ZM24.3594 30.625H22.6406C22.4974 30.625 22.3685 30.582 22.2539 30.4961C22.168 30.3815 22.125 30.2526 22.125 30.1094V28.3906C22.125 28.2474 22.168 28.1328 22.2539 28.0469C22.3685 27.9323 22.4974 27.875 22.6406 27.875H24.3594C24.5026 27.875 24.6172 27.9323 24.7031 28.0469C24.8177 28.1328 24.875 28.2474 24.875 28.3906V30.1094C24.875 30.2526 24.8177 30.3815 24.7031 30.4961C24.6172 30.582 24.5026 30.625 24.3594 30.625ZM32.6094 30.625H30.8906C30.7474 30.625 30.6185 30.582 30.5039 30.4961C30.418 30.3815 30.375 30.2526 30.375 30.1094V28.3906C30.375 28.2474 30.418 28.1328 30.5039 28.0469C30.6185 27.9323 30.7474 27.875 30.8906 27.875H32.6094C32.7526 27.875 32.8672 27.9323 32.9531 28.0469C33.0677 28.1328 33.125 28.2474 33.125 28.3906V30.1094C33.125 30.2526 33.0677 30.3815 32.9531 30.4961C32.8672 30.582 32.7526 30.625 32.6094 30.625Z" fill="#C17CEB"/>
<defs>
<filter id="filter0_d_59_793" x="0" y="0" width="56" height="56" filterUnits="userSpaceOnUse" color-interpolation-filters="sRGB">
<feFlood flood-opacity="0" result="BackgroundImageFix"/>
<feColorMatrix in="SourceAlpha" type="matrix" values="0 0 0 0 0 0 0 0 0 0 0 0 0 0 0 0 0 0 127 0" result="hardAlpha"/>
<feOffset dy="4"/>
<feGaussianBlur stdDeviation="3"/>
<feComposite in2="hardAlpha" operator="out"/>
<feColorMatrix type="matrix" values="0 0 0 0 0 0 0 0 0 0 0 0 0 0 0 0 0 0 0.08 0"/>
<feBlend mode="normal" in2="BackgroundImageFix" result="effect1_dropShadow_59_793"/>
<feBlend mode="normal" in="SourceGraphic" in2="effect1_dropShadow_59_793" result="shape"/>
</filter>
</defs>
</svg>
