<svg width="40" height="40" viewBox="0 0 40 40" fill="none" xmlns="http://www.w3.org/2000/svg">
<rect width="40" height="40" rx="8" fill="#1D1D1D"/>
<path d="M14.9062 27V15.3203H11.2734V27H14.9062ZM13.0703 13.7578C14.2422 13.7578 15.1797 12.7812 15.1797 11.6094C15.1797 10.4766 14.2422 9.53906 13.0703 9.53906C11.9375 9.53906 11 10.4766 11 11.6094C11 12.7812 11.9375 13.7578 13.0703 13.7578ZM28.4609 27H28.5V20.5938C28.5 17.4688 27.7969 15.0469 24.125 15.0469C22.3672 15.0469 21.1953 16.0234 20.6875 16.9219H20.6484V15.3203H17.1719V27H20.8047V21.2188C20.8047 19.6953 21.0781 18.25 22.9531 18.25C24.8281 18.25 24.8672 19.9688 24.8672 21.3359V27H28.4609Z" fill="#144679"/>
</svg>
