<svg xmlns="http://www.w3.org/2000/svg" viewBox="0 0 674.83 678.46"><defs><style>.cls-1{fill:none;}.cls-2{fill:#616e7d;}.cls-3{fill:#aad4c8;}.cls-4{fill:#82bfab;}</style></defs><title>5613 [Converted]</title><g id="Object"><path class="cls-1" d="M494.55,301.15c-103.8,0-188,84.14-188,188s84.17,188,188,188,188-84.14,188-188A188,188,0,0,0,494.55,301.15Zm-89,257.43a12.7,12.7,0,0,1-10-20.61L526.85,372.8a12.71,12.71,0,0,1,19.9,15.81L415.46,553.78A12.66,12.66,0,0,1,405.51,558.58Zm196.3-114.91L470.5,608.84a12.68,12.68,0,0,1-9.94,4.8A12.7,12.7,0,0,1,450.61,593L581.92,427.87a12.7,12.7,0,1,1,19.89,15.8Z" transform="translate(-223.58 -221.77)"/><path class="cls-2" d="M875.4,808.66l-2.83-2.85L804,874.41l1.67,1.66,18.2,18.16c11.65,11.68,36.46,5.78,55.42-13.15s24.84-43.77,13.18-55.42l-17-17Z" transform="translate(-223.58 -221.77)"/><polygon class="cls-3" points="632.2 567.54 563.59 636.1 580.38 652.64 648.99 584.04 647.03 582.08 646.97 582.11 632.2 567.54"/><path class="cls-2" d="M490.89,221.77c-147.63,0-267.31,119.7-267.31,267.35S343.26,756.43,490.89,756.43a266,266,0,0,0,147.94-44.69L787.18,857.87l68.6-68.56L708.4,644.15a265.7,265.7,0,0,0,49.84-155C758.24,341.47,638.56,221.77,490.89,221.77Zm3.66,455.31c-103.8,0-188-84.14-188-188s84.17-188,188-188a188,188,0,0,1,188,188C682.52,592.94,598.37,677.08,494.55,677.08Z" transform="translate(-223.58 -221.77)"/><path class="cls-4" d="M526.85,372.8,395.55,538a12.71,12.71,0,0,0,19.91,15.81L546.75,388.61a12.71,12.71,0,0,0-19.9-15.81Z" transform="translate(-223.58 -221.77)"/><path class="cls-4" d="M581.92,427.87,450.61,593a12.7,12.7,0,1,0,19.89,15.81L601.81,443.67a12.7,12.7,0,1,0-19.89-15.8Z" transform="translate(-223.58 -221.77)"/></g></svg>